# xmcd CD database file
#
# Track frame offsets:
#	150
#	21360
#	44052
#	60077
#	87530
#	104540
#	120950
#	137150
#	149671
#	170270
#
# Disc length: 2516 seconds
#
# Revision: 0
# Processed by: cddbd v1.5.2PL0 Copyright (c) Steve Scherf et al.
# Submitted via: CDex 1.70beta2
#
DISCID=8c09d20a
DTITLE=elkano browning cream - Album 2
DYEAR=2010
DGENRE=Blues
TTITLE0=Sugaar
TTITLE1=World State
TTITLE2=Yodi
TTITLE3=Osito Blues
TTITLE4=Far East Sweet
TTITLE5=Herb Tree
TTITLE6=I Got My Mojo Working
TTITLE7=Morgan
TTITLE8=Euphoria
TTITLE9=Osito Bossa
EXTD=YEAR: 2010
EXTT0=
EXTT1=
EXTT2=
EXTT3=
EXTT4=
EXTT5=
EXTT6=
EXTT7=
EXTT8=
EXTT9=
PLAYORDER=
